<?xml version="1.0" encoding="UTF-8"?><svg id="Lag_1" xmlns="http://www.w3.org/2000/svg" viewBox="0 0 275.56 175.73"><defs><style>.cls-1{stroke:#1d1d1b;stroke-linecap:round;}.cls-1,.cls-2{stroke-miterlimit:10;}.cls-2{fill:none;stroke:#000;stroke-width:1.2px;}</style></defs><line class="cls-2" x1="28.82" y1="18.19" x2="255.32" y2="18.19"/><path class="cls-2" d="M21.32,82.69c7.67,1.47,11.46-.08,13.5-2,3.98-3.74,2.13-9.16,6-15,3.17-4.79,8.33-6.94,12-8,1.09.04,5.68.35,9,4,3.7,4.07,3.16,9.37,3,11,0,0-.02,2.5-1.18,4.6-6.48,11.77-29.99,18.52-29.82,24.4.16,5.55,21.5,14.65,31,7,10.01-8.06-3.03-26.75,9-52,2.58-5.42,7.15-14.65,17-18,7.61-2.59,18.69-1.77,22,4,3.62,6.3-5.15,13.04-10,34-2.46,10.61-3.97,17.6,0,23,5.17,7.03,16.91,7.69,25,5,6.52-2.17,15.65-8.18,16-16,.41-9.22-11.8-11.68-12-21-.2-9.67,12.66-19.73,25-21,2-.21,13.79-1.42,19,6,5.42,7.72-.16,19.27-1,21-4.62,9.57-12.03,11.6-11,15,1.18,3.92,12.35,5.55,21,2,6.02-2.47,12.78-8.27,14-16,1.63-10.34-7.86-16.21-5-21,3.06-5.12,17.98-5.28,23,2,4.38,6.35-.23,16.22-2,20-4.32,9.25-10.14,11.56-9,15,1.38,4.15,11.88,6.97,18,3,8.47-5.51,4.96-20.39,12-23,3.42-1.27,7.43,1.11,10,3v6"/><ellipse class="cls-1" cx="22.34" cy="82.19" rx="4.03" ry="4"/><ellipse class="cls-1" cx="246.1" cy="77.19" rx="4.03" ry="4"/><ellipse class="cls-1" cx="27.03" cy="18.5" rx="4.03" ry="4"/><ellipse class="cls-1" cx="255.03" cy="18.5" rx="4.03" ry="4"/><ellipse class="cls-1" cx="22.03" cy="141.54" rx="4.03" ry="4" transform="translate(-33.14 9.35) rotate(-13.81)"/><path class="cls-2" d="M21.82,141.69c2.17,1.31,5.57,3.03,10,4,4.34.95,8.37.88,14,0,13.42-2.09,24.53-3.82,27-11,1.3-3.79,0-8.55-3-11-4.66-3.81-13.14-1.81-16,3-1.82,3.07-.92,6.52,0,10,.88,3.34,3.12,11.88,11,16,9.23,4.83,19.13-.08,23-2,3.31-1.64,9.66-4.79,13-12,2.97-6.4,4.28-17.54-3-24-6.35-5.63-17.61-6.25-22-1-5.1,6.11,1.07,17.8,5,23,7.57,10.01,19.23,12.4,27,14,6.13,1.26,11.67,2.32,18,0,8.08-2.96,15.56-10.75,14-15-1.07-2.92-6.58-4.66-11-3-2.92,1.1-5.81,3.85-6,7-.31,5.25,7.02,10.26,13,12,16.01,4.64,26.93-12.83,37-8,8.85,4.25,11.53,23.1,6,27-4.9,3.46-18.46-3.24-19-10-.63-7.84,15.99-18.96,32-20,9.34-.6,13.77,2.52,20-1,7.53-4.26,12.03-15.02,9-19-4.09-5.37-24.45-1.75-27,8-1.89,7.22,6.54,15.69,14,19,10.31,4.58,23.51,1.41,34-8"/><ellipse class="cls-1" cx="243.45" cy="141.1" rx="4.03" ry="4"/></svg>