<?xml version="1.0" encoding="UTF-8"?><svg id="Lag_1" xmlns="http://www.w3.org/2000/svg" viewBox="0 0 312 83"><defs><style>.cls-1{fill:#fff;}.cls-2{fill:#f09055;}</style></defs><text/><rect class="cls-2" width="312" height="83"/><polygon class="cls-1" points="35.11 20.11 40.99 37.65 59.96 37.62 44.63 48.48 50.52 66.01 35.16 55.19 19.82 66.06 25.66 48.51 10.3 37.69 29.27 37.66 35.11 20.11"/><polygon class="cls-1" points="96.29 20.27 102.18 37.8 121.14 37.78 105.81 48.64 111.7 66.17 96.34 55.35 81.01 66.21 86.85 48.67 71.48 37.85 90.45 37.82 96.29 20.27"/><polygon class="cls-1" points="156.01 20.68 161.9 38.21 180.87 38.18 165.54 49.05 171.42 66.58 156.06 55.76 140.73 66.62 146.57 49.07 131.21 38.25 150.17 38.23 156.01 20.68"/><polygon class="cls-1" points="217.09 21.18 222.97 38.71 241.94 38.69 226.61 49.55 232.5 67.08 217.13 56.26 201.8 67.12 207.64 49.57 192.28 38.76 211.25 38.73 217.09 21.18"/><polygon class="cls-1" points="278.19 20.97 284.08 38.5 303.05 38.47 287.72 49.33 293.6 66.87 278.24 56.05 262.91 66.91 268.75 49.36 253.39 38.54 272.36 38.52 278.19 20.97"/></svg>